<svg xmlns="http://www.w3.org/2000/svg" version="1.1" xmlns:xlink="http://www.w3.org/1999/xlink" xmlns:svgjs="http://svgjs.dev/svgjs" width="2000" height="363" viewBox="0 0 2000 363"><g transform="matrix(1,0,0,1,-1.2121212121212466,0.4456775809890985)"><svg viewBox="0 0 396 72" data-background-color="#0a1627" preserveAspectRatio="xMidYMid meet" height="363" width="2000" xmlns="http://www.w3.org/2000/svg" xmlns:xlink="http://www.w3.org/1999/xlink"><g id="tight-bounds" transform="matrix(1,0,0,1,0.2400000000000091,-0.08839885903915956)"><svg viewBox="0 0 395.52 72.1767977180783" height="72.1767977180783" width="395.52"><g><svg viewBox="0 0 494.4542066116331 90.23088908641975" height="72.1767977180783" width="395.52"><g transform="matrix(1,0,0,1,98.93420661163309,27.882654419753084)"><svg viewBox="0 0 395.52 34.46558024691358" height="34.46558024691358" width="395.52"><g id="textblocktransform"><svg viewBox="0 0 395.52 34.46558024691358" height="34.46558024691358" width="395.52" id="textblock"><g><svg viewBox="0 0 395.52 34.46558024691358" height="34.46558024691358" width="395.52"><g transform="matrix(1,0,0,1,0,0)"><svg width="395.52" viewBox="1 -40.36 474.57 41.36" height="34.46558024691358" data-palette-color="#fe9e0d"><path d="M1-36.18L1-37.99 10.72-37.99 23.95-9.3 37.5-37.99 46.78-37.99 46.78-36.18Q43.58-35.79 42.75-35.13L42.75-35.13Q41.85-34.45 41.85-32.25L41.85-32.25 41.85-5.74Q41.85-3.56 42.87-2.73L42.87-2.73Q43.65-2.1 46.78-1.81L46.78-1.81 46.78 0 33.3 0 33.3-1.81Q36.55-2.1 37.4-2.88L37.4-2.88Q38.31-3.71 38.31-5.74L38.31-5.74 38.31-32.98 38.09-32.98 24.32-3.81 22.36-3.81 8.91-33.64 8.72-33.64 8.72-5.74Q8.72-3.56 9.62-2.86L9.62-2.86Q10.47-2.17 13.65-1.81L13.65-1.81 13.65 0 1 0 1-1.81Q4.15-2.25 5-2.91L5-2.91Q5.96-3.64 5.96-5.74L5.96-5.74 5.96-32.25Q5.96-34.4 4.96-35.13L4.96-35.13Q4.1-35.77 1-36.18L1-36.18ZM49-36.18L49-37.99 58.71-37.99 71.95-9.3 85.5-37.99 94.77-37.99 94.77-36.18Q91.57-35.79 90.74-35.13L90.74-35.13Q89.84-34.45 89.84-32.25L89.84-32.25 89.84-5.74Q89.84-3.56 90.87-2.73L90.87-2.73Q91.65-2.1 94.77-1.81L94.77-1.81 94.77 0 81.3 0 81.3-1.81Q84.54-2.1 85.4-2.88L85.4-2.88Q86.3-3.71 86.3-5.74L86.3-5.74 86.3-32.98 86.08-32.98 72.31-3.81 70.36-3.81 56.91-33.64 56.71-33.64 56.71-5.74Q56.71-3.56 57.61-2.86L57.61-2.86Q58.47-2.17 61.64-1.81L61.64-1.81 61.64 0 49 0 49-1.81Q52.15-2.25 53-2.91L53-2.91Q53.95-3.64 53.95-5.74L53.95-5.74 53.95-32.25Q53.95-34.4 52.95-35.13L52.95-35.13Q52.1-35.77 49-36.18L49-36.18ZM148.16-38.01L148.16-26.39 146.31-26.39Q143.84-36.25 133.71-36.25L133.71-36.25Q126.73-36.25 122.92-30.42L122.92-30.42Q119.91-25.78 119.91-18.82L119.91-18.82Q119.91-12.94 122.7-8.69L122.7-8.69Q125.04-5.13 128.83-3.44L128.83-3.44Q131.36-2.29 134.25-2.29L134.25-2.29Q144.65-2.29 148.16-13.35L148.16-13.35 150.16-12.5Q148.11-5.59 144.38-2.47L144.38-2.47Q140.28 0.95 133.68 0.95L133.68 0.95Q125.6 0.95 120.55-4.79L120.55-4.79Q115.72-10.25 115.72-18.77L115.72-18.77Q115.72-25.83 119.06-31.05L119.06-31.05Q122.04-35.69 126.95-37.7L126.95-37.7Q130.05-38.96 133.51-38.96L133.51-38.96Q138.59-38.96 143.38-36.28L143.38-36.28Q144.52-35.64 145.16-35.64L145.16-35.64Q146.01-35.64 146.35-38.01L146.35-38.01 148.16-38.01ZM168.69-28L168.69-28Q175.23-28 178.9-22.88L178.9-22.88Q181.66-19.02 181.66-13.43L181.66-13.43Q181.66-7.74 178.95-3.96L178.95-3.96Q175.38 1 168.64 1L168.64 1Q162.86 1 159.32-2.78L159.32-2.78Q155.65-6.71 155.65-13.43L155.65-13.43Q155.65-19.73 159.07-23.71L159.07-23.71Q162.73-28 168.69-28ZM168.59-25.61L168.59-25.61Q165.27-25.61 162.91-23.17L162.91-23.17Q159.66-19.87 159.66-13.55L159.66-13.55Q159.66-8.45 162.37-4.88L162.37-4.88Q165-1.39 168.67-1.39L168.67-1.39Q172.01-1.39 174.6-4.44L174.6-4.44Q177.65-8.08 177.65-13.57L177.65-13.57Q177.65-18.65 175.43-21.92L175.43-21.92Q172.91-25.61 168.59-25.61ZM197.64 0L185.36 0 185.36-1.81Q188.17-1.93 189.05-2.76L189.05-2.76Q189.95-3.59 189.95-5.81L189.95-5.81 189.95-21.66Q189.95-23.83 189-24.51L189-24.51Q188.29-25 185.51-25.2L185.51-25.2 185.51-27Q189.86-27 193.44-28L193.44-28 193.44-23.24Q195.06-25.49 197.62-26.83L197.62-26.83Q199.89-28 202.18-28L202.18-28Q206.85-28 209.58-24.63L209.58-24.63Q211.8-21.88 211.8-16.99L211.8-16.99 211.8-5.81Q211.8-3.47 212.73-2.69L212.73-2.69Q213.59-1.95 216.44-1.81L216.44-1.81 216.44 0 204.06 0 204.06-1.81Q206.6-1.95 207.51-2.76L207.51-2.76Q208.31-3.47 208.31-5.81L208.31-5.81 208.31-17.14Q208.31-20.78 206.51-22.97L206.51-22.97Q204.77-25.1 201.87-25.1L201.87-25.1Q197.28-25.1 193.44-19.51L193.44-19.51 193.44-5.81Q193.44-3.52 194.3-2.76L194.3-2.76Q195.15-1.98 197.64-1.81L197.64-1.81 197.64 0ZM219.88 0.71L219.88-9.79 221.59-9.79Q222.69-5.4 225.52-3.42L225.52-3.42Q228.48-1.34 231.63-1.34L231.63-1.34Q234.58-1.34 236.44-2.78L236.44-2.78Q238.22-4.15 238.22-6.15L238.22-6.15Q238.22-8.33 235.75-9.89L235.75-9.89Q234.26-10.84 231.43-11.84L231.43-11.84 230.04-12.35Q223.96-14.5 222.18-16.28L222.18-16.28Q220.42-18.04 220.42-20.92L220.42-20.92Q220.42-24.02 222.98-26.07L222.98-26.07Q225.38-28 229.62-28L229.62-28Q233.19-28 236.22-25.76L236.22-25.76Q236.75-25.34 237.31-25.34L237.31-25.34Q238-25.34 238.22-27L238.22-27 239.88-27 239.88-18.85 237.97-18.85Q237.14-21.8 235.21-23.61L235.21-23.61Q233.02-25.66 229.72-25.66L229.72-25.66Q227.06-25.66 225.6-24.54L225.6-24.54Q223.98-23.29 223.98-21.22L223.98-21.22Q223.98-19.73 225.4-18.6L225.4-18.6Q226.65-17.65 230.87-16.16L230.87-16.16 232.58-15.55Q237.85-13.7 239.9-11.79L239.9-11.79Q242.07-9.77 242.07-6.37L242.07-6.37Q242.07-2.93 239.22-0.95L239.22-0.95Q236.44 1 232.04 1L232.04 1Q228.01 1 224.89-1.1L224.89-1.1 224.77-1.17Q223.62-1.95 223.3-1.95L223.3-1.95Q222.47-1.95 221.59 0.71L221.59 0.71 219.88 0.71ZM250.28-24.61L244.51-24.61 244.51-26.95Q248.47-27.69 250.3-30.27L250.3-30.27Q251.62-32.15 252.01-35.45L252.01-35.45 253.82-35.45 253.82-27 262.9-27 262.9-24.61 253.82-24.61 253.82-7.86Q253.82-4.96 254.55-3.66L254.55-3.66Q255.43-2.2 257.55-2.2L257.55-2.2Q260.82-2.2 262.9-5.3L262.9-5.3 264.05-3.39Q261.19 0.85 256.57 0.85L256.57 0.85Q252.86 0.85 251.28-2.22L251.28-2.22Q250.28-4.17 250.28-7.5L250.28-7.5 250.28-24.61ZM279.01 0L265.92 0 265.92-1.81Q269.02-1.88 269.83-2.78L269.83-2.78Q270.56-3.59 270.56-5.81L270.56-5.81 270.56-21.66Q270.56-23.73 269.66-24.39L269.66-24.39Q268.83-25.02 266.07-25.2L266.07-25.2 266.07-27Q269.78-27 273.88-28L273.88-28 273.88-22.34Q275.37-24.76 278.35-26.54L278.35-26.54Q280.77-28 283.52-28L283.52-28Q285.5-28 286.75-27L286.75-27Q288.16-25.85 288.16-23.83L288.16-23.83Q288.16-22.63 287.46-21.85L287.46-21.85Q286.67-21 285.38-21L285.38-21Q284.6-21 283.96-21.41L283.96-21.41Q282.69-22.24 282.69-23.75L282.69-23.75Q282.69-24.54 283.21-25.29L283.21-25.29Q280.96-25.24 278.76-23.66L278.76-23.66Q275.88-21.58 274.05-18.36L274.05-18.36 274.05-5.81Q274.05-3.47 274.91-2.71L274.91-2.71Q275.83-1.86 279.01-1.81L279.01-1.81 279.01 0ZM319.12 0L312.48 0 311.96-3.96Q307.99 1 302.79 1L302.79 1Q297.32 1 294.87-3.37L294.87-3.37Q293.41-5.98 293.41-10.01L293.41-10.01 293.41-21.66Q293.41-23.88 292.51-24.51L292.51-24.51Q291.75-25.02 288.92-25.2L288.92-25.2 288.92-27Q292.9-27.03 296.9-28L296.9-28 296.9-10.21Q296.9-6.08 298.85-3.86L298.85-3.86Q300.56-1.9 303.54-1.9L303.54-1.9Q308.3-1.9 311.72-7.5L311.72-7.5 311.72-21.66Q311.72-23.95 310.72-24.56L310.72-24.56Q309.99-25.02 307.25-25.2L307.25-25.2 307.25-27Q311.67-27.03 315.26-28L315.26-28 315.26-6.54Q315.26-3.74 316.09-2.76L316.09-2.76Q316.75-1.98 319.12-1.81L319.12-1.81 319.12 0ZM345.85-8.25L347.41-6.64Q343.48 1 335.72 1L335.72 1Q331.47 1 328.22-1.25L328.22-1.25Q322.46-5.2 322.46-13.55L322.46-13.55Q322.46-19.07 325.22-22.8L325.22-22.8Q327.71-26.2 331.86-27.42L331.86-27.42Q333.91-28 336.06-28L336.06-28Q340.5-28 343.36-25.73L343.36-25.73Q345.92-23.73 345.92-21.41L345.92-21.41Q345.92-20.56 345.58-19.8L345.58-19.8Q344.85-18.26 343.11-18.26L343.11-18.26Q341.67-18.26 340.92-19.36L340.92-19.36Q340.45-20 340.45-20.87L340.45-20.87Q340.45-22.63 341.65-23.24L341.65-23.24Q340.11-25.61 336.11-25.61L336.11-25.61Q331.66-25.61 328.88-21.88L328.88-21.88Q326.46-18.6 326.46-13.55L326.46-13.55Q326.46-9.86 327.81-7.13L327.81-7.13Q329.03-4.61 331.2-3.2L331.2-3.2Q333.37-1.81 336.06-1.81L336.06-1.81Q342.06-1.81 345.85-8.25L345.85-8.25ZM355.27-24.61L349.51-24.61 349.51-26.95Q353.46-27.69 355.29-30.27L355.29-30.27Q356.61-32.15 357-35.45L357-35.45 358.81-35.45 358.81-27 367.89-27 367.89-24.61 358.81-24.61 358.81-7.86Q358.81-4.96 359.54-3.66L359.54-3.66Q360.42-2.2 362.55-2.2L362.55-2.2Q365.82-2.2 367.89-5.3L367.89-5.3 369.04-3.39Q366.18 0.85 361.57 0.85L361.57 0.85Q357.86 0.85 356.27-2.22L356.27-2.22Q355.27-4.17 355.27-7.5L355.27-7.5 355.27-24.61ZM378.66-40.36L378.66-40.36Q379.51-40.36 380.32-39.87L380.32-39.87Q381.76-38.94 381.76-37.26L381.76-37.26Q381.76-36.04 380.9-35.13L380.9-35.13Q380-34.16 378.66-34.16L378.66-34.16Q377.88-34.16 377.19-34.52L377.19-34.52Q375.56-35.42 375.56-37.26L375.56-37.26Q375.56-38.67 376.63-39.6L376.63-39.6Q377.51-40.36 378.66-40.36ZM385.35 0L372.02 0 372.02-1.81Q375.39-1.93 376.24-2.83L376.24-2.83Q377.02-3.64 377.02-5.81L377.02-5.81 377.02-21.66Q377.02-23.66 375.97-24.32L375.97-24.32Q374.97-24.95 372.5-25.2L372.5-25.2 372.5-27Q376.17-27 380.56-28L380.56-28 380.56-5.81Q380.56-3.47 381.49-2.61L381.49-2.61Q382.34-1.86 385.35-1.81L385.35-1.81 385.35 0ZM402.19-28L402.19-28Q408.73-28 412.39-22.88L412.39-22.88Q415.15-19.02 415.15-13.43L415.15-13.43Q415.15-7.74 412.44-3.96L412.44-3.96Q408.88 1 402.14 1L402.14 1Q396.35 1 392.81-2.78L392.81-2.78Q389.15-6.71 389.15-13.43L389.15-13.43Q389.15-19.73 392.57-23.71L392.57-23.71Q396.23-28 402.19-28ZM402.09-25.61L402.09-25.61Q398.77-25.61 396.4-23.17L396.4-23.17Q393.16-19.87 393.16-13.55L393.16-13.55Q393.16-8.45 395.87-4.88L395.87-4.88Q398.5-1.39 402.16-1.39L402.16-1.39Q405.51-1.39 408.1-4.44L408.1-4.44Q411.15-8.08 411.15-13.57L411.15-13.57Q411.15-18.65 408.93-21.92L408.93-21.92Q406.41-25.61 402.09-25.61ZM431.14 0L418.86 0 418.86-1.81Q421.67-1.93 422.55-2.76L422.55-2.76Q423.45-3.59 423.45-5.81L423.45-5.81 423.45-21.66Q423.45-23.83 422.5-24.51L422.5-24.51Q421.79-25 419.01-25.2L419.01-25.2 419.01-27Q423.35-27 426.94-28L426.94-28 426.94-23.24Q428.55-25.49 431.12-26.83L431.12-26.83Q433.39-28 435.68-28L435.68-28Q440.35-28 443.08-24.63L443.08-24.63Q445.3-21.88 445.3-16.99L445.3-16.99 445.3-5.81Q445.3-3.47 446.23-2.69L446.23-2.69Q447.08-1.95 449.94-1.81L449.94-1.81 449.94 0 437.56 0 437.56-1.81Q440.1-1.95 441.01-2.76L441.01-2.76Q441.81-3.47 441.81-5.81L441.81-5.81 441.81-17.14Q441.81-20.78 440-22.97L440-22.97Q438.27-25.1 435.37-25.1L435.37-25.1Q430.78-25.1 426.94-19.51L426.94-19.51 426.94-5.81Q426.94-3.52 427.8-2.76L427.8-2.76Q428.65-1.98 431.14-1.81L431.14-1.81 431.14 0ZM453.38 0.71L453.38-9.79 455.09-9.79Q456.19-5.4 459.02-3.42L459.02-3.42Q461.97-1.34 465.12-1.34L465.12-1.34Q468.08-1.34 469.93-2.78L469.93-2.78Q471.72-4.15 471.72-6.15L471.72-6.15Q471.72-8.33 469.25-9.89L469.25-9.89Q467.76-10.84 464.93-11.84L464.93-11.84 463.54-12.35Q457.46-14.5 455.68-16.28L455.68-16.28Q453.92-18.04 453.92-20.92L453.92-20.92Q453.92-24.02 456.48-26.07L456.48-26.07Q458.87-28 463.12-28L463.12-28Q466.69-28 469.71-25.76L469.71-25.76Q470.25-25.34 470.81-25.34L470.81-25.34Q471.5-25.34 471.72-27L471.72-27 473.38-27 473.38-18.85 471.47-18.85Q470.64-21.8 468.71-23.61L468.71-23.61Q466.52-25.66 463.22-25.66L463.22-25.66Q460.56-25.66 459.09-24.54L459.09-24.54Q457.48-23.29 457.48-21.22L457.48-21.22Q457.48-19.73 458.9-18.6L458.9-18.6Q460.14-17.65 464.37-16.16L464.37-16.16 466.08-15.55Q471.35-13.7 473.4-11.79L473.4-11.79Q475.57-9.77 475.57-6.37L475.57-6.37Q475.57-2.93 472.72-0.95L472.72-0.95Q469.93 1 465.54 1L465.54 1Q461.51 1 458.39-1.1L458.39-1.1 458.26-1.17Q457.12-1.95 456.8-1.95L456.8-1.95Q455.97-1.95 455.09 0.71L455.09 0.71 453.38 0.71Z" opacity="1" transform="matrix(1,0,0,1,0,0)" fill="#fe9e0d" class="wordmark-text-0" data-fill-palette-color="primary" id="text-0"></path></svg></g></svg></g></svg></g></svg></g><g><svg viewBox="0 0 90.79771028926271 90.23088908641975" height="90.23088908641975" width="90.79771028926271"><g><svg xmlns:dc="http://purl.org/dc/elements/1.1/" xmlns:cc="http://creativecommons.org/ns#" xmlns:rdf="http://www.w3.org/1999/02/22-rdf-syntax-ns#" xmlns:svg="http://www.w3.org/2000/svg" xmlns="http://www.w3.org/2000/svg" xmlns:sodipodi="http://sodipodi.sourceforge.net/DTD/sodipodi-0.dtd" xmlns:inkscape="http://www.inkscape.org/namespaces/inkscape" viewBox="-0.0004500000000007276 -0.0003899999999816828 438.11300000000006 435.378" version="1.1" x="0" y="0" id="icon-0" width="90.79771028926271" height="90.23088908641975" class="icon-icon-0" data-fill-palette-color="accent"><g transform="translate(-206.61245,-410.00239)" fill="#000000" data-fill-palette-color="accent"><path d="M644.641 505.653H539.255L385.733 411.95V410.002H336.603V412.822L257.523 505.653H251.931V491.445H228.65C216.47 491.445 206.612 501.346 206.612 513.525V545.257C206.612 557.437 216.47 567.337 228.65 567.337H251.931V554.287H319.246V545.381H302.966L312.038 536.31 319.246 543.517V530.965L318.376 529.97 319.245 529.1V516.463L312.038 523.673 302.966 514.598H319.246V505.693H269.204L336.604 426.573V492.644H323.72V562.363H306.528V592.23H323.223V726.614H310.091V819.447H297.788C290.621 819.447 284.822 825.248 284.822 832.414S290.663 845.38 297.788 845.38H424.508C431.673 845.38 437.472 839.581 437.472 832.414S431.633 819.447 424.507 819.447H412.204V726.614H399.03V592.23H415.725V562.363H398.906V492.645H385.733V422.428L522.146 505.693H403.422V522.181L408.6 517.003 421.566 530.01 408.6 542.976 403.422 537.798V554.285H521.65V564.972H538.012V629.347H534.906L543.688 656.191H553.298V666.423A4.41 4.41 0 0 0 557.731 670.855C563.364 670.855 567.922 675.455 567.922 681.087 567.922 686.721 563.364 691.32 557.732 691.32 552.096 691.32 547.54 686.721 547.54 681.087 547.54 678.601 545.51 676.654 543.108 676.654A4.41 4.41 0 0 0 538.675 681.087C538.675 691.61 547.25 700.184 557.772 700.184S576.87 691.61 576.87 681.087C576.87 672.098 570.656 664.518 562.205 662.488V656.191H571.815L580.597 629.347H577.491V564.972H593.855V554.285H644.725V505.652zM254.126 542.977L251.931 540.782V519.158L254.126 516.964 267.133 529.971 254.126 542.98zM273.43 536.267L282.543 545.38H264.358zM264.317 514.558H282.502L273.388 523.674zM292.692 542.977L279.727 529.97 292.692 516.962 305.7 529.97zM390.124 715.885L368.542 694.095 390.124 670.898zM356.198 627.443L332.212 653.21V603.21zM334.45 592.853H388.384L362.245 620.897zM362.452 633.781L388.302 659.837 362.245 687.758 336.437 661.701zM332.212 670.071L356.198 694.261 332.212 720.027zM338.26 726.572L362.452 700.6 388.177 726.573zM390.124 649.026L368.542 627.236 390.124 604.038zM376.826 484.113L367.423 474.748 376.826 465.346zM341.532 518.908H381.094V549.522H341.532zM354.83 434.61L345.468 444.013V425.247zM351.763 418.91H370.53L361.126 428.313zM361.168 440.864L374.962 454.66 361.168 468.454 347.373 454.66zM345.51 465.388L354.871 474.791 345.51 484.154zM349.57 492.646L361.125 481.088 372.683 492.646zM367.422 434.61L376.826 425.247V443.971zM568.748 629.307H546.588V564.932H568.747zM593.356 534.775L588.55 530.011 601.557 517.004 614.565 530.011 601.557 543.02 593.77 535.19V534.774H593.353zM554.747 534.775L549.984 530.011 562.991 517.004 575.956 530.011 571.193 534.775zM521.607 534.775V540.243L511.375 529.97 524.341 516.962 537.348 529.97 532.584 534.734H521.607zM611.79 514.56H630.016L620.861 523.674zM582.295 523.714L573.181 514.6H591.366zM543.687 523.714L534.532 514.6H552.758zM505.037 523.714L495.922 514.6H514.151zM498.781 529.97L485.774 542.977 472.767 529.97 485.774 516.962zM466.47 523.714L457.356 514.6H475.543zM460.132 529.97L447.166 542.977 434.16 529.97 447.166 516.962zM466.47 536.266L475.584 545.38H457.398zM505.036 536.266L514.151 545.38H495.964zM620.861 536.266L629.974 545.38H611.831zM627.201 529.97L635.732 521.436V538.503zM418.706 514.56H436.933L427.82 523.674zM436.933 545.38H418.79L427.903 536.266z" fill="#000000" fill-opacity="1" data-fill-palette-color="accent"></path></g></svg></g></svg></g></svg></g><defs></defs></svg><rect width="395.52" height="72.1767977180783" fill="none" stroke="none" visibility="hidden"></rect></g></svg></g></svg>